<?xml version="1.0" standalone="no"?><!DOCTYPE svg PUBLIC "-//W3C//DTD SVG 1.1//EN" "http://www.w3.org/Graphics/SVG/1.1/DTD/svg11.dtd"><svg t="1648701394786" class="icon" viewBox="0 0 1024 1024" version="1.1" xmlns="http://www.w3.org/2000/svg" p-id="1267" width="48" height="48" xmlns:xlink="http://www.w3.org/1999/xlink"><defs><style type="text/css">@font-face { font-family: feedback-iconfont; src: url("//at.alicdn.com/t/font_1031158_u69w8yhxdu.woff2?t=1630033759944") format("woff2"), url("//at.alicdn.com/t/font_1031158_u69w8yhxdu.woff?t=1630033759944") format("woff"), url("//at.alicdn.com/t/font_1031158_u69w8yhxdu.ttf?t=1630033759944") format("truetype"); }
</style></defs><path d="M771.54364719 169.44052531a454.73843625 454.73843625 0 0 1 80.95560844 73.26003469 478.69204875 478.69204875 0 0 1 60.63686156 88.40784375 436.30555969 436.30555969 0 0 1 38.44745062 100.54434094 445.40032875 445.40032875 0 0 1 13.26193688 107.63156906q0 93.97420687-35.92281563 176.34421969t-97.15281375 143.47834125q-61.24520719 61.13874656-143.72167968 96.98551875t-176.57234907 35.90760656q-93.09210563 0-175.55337-35.87718937a468.42621469 468.42621469 0 0 1-144.20835656-97.00072782 449.94771281 449.94771281 0 0 1-97.15281375-143.49354937Q59.14037656 633.27372969 59.14037656 539.28431375a439.40812312 439.40812312 0 0 1 12.63838219-105.091725A466.40346562 466.40346562 0 0 1 107.70157438 336.17288188a432.18401813 432.18401813 0 0 1 57.68638406-86.90218782 491.46730969 491.46730969 0 0 1 76.91010937-72.75814969 64.75840313 64.75840313 0 0 1 48.05931281-12.16691437c11.16314437 1.44482156 22.67608688 11.69544656 23.67985782 24.10569937 1.67295094 20.79021563-13.09464188 37.2459675-29.74810594 49.92997594q-74.96340281 54.75111562-114.84046594 134.39878125T129.61722969 543.93815844a372.36842344 372.36842344 0 0 0 29.74810594 147.99530812 381.73694813 381.73694813 0 0 0 81.54874593 121.27372219 389.34126937 389.34126937 0 0 0 121.33455657 82.05063094 377.174355 377.174355 0 0 0 296.32520718 0A386.42121 386.42121 0 0 0 862.01986719 691.94867562a365.00743969 365.00743969 0 0 0 30.28040812-148.01051718 375.65349 375.65349 0 0 0-42.81233062-175.34044875 370.84755938 370.84755938 0 0 0-120.1482825-136.11735844c-17.45952281-11.87795063-30.2652-28.74433594-28.15119844-49.53455063 1.52086406-14.76759281 10.32666844-22.41754031 21.79398563-24.10570031 17.61160875-2.60067844 33.73277063 0.501885 48.56119781 10.64605031z" fill="#333333" p-id="1268"></path><path d="M501.92481875 32.000015a40.24207031 40.24207031 0 0 1 40.2724875 40.21165312v402.55758094a40.25727937 40.25727937 0 0 1-80.49934969 0V72.25729438A40.24207031 40.24207031 0 0 1 501.92481875 32.000015z" fill="#333333" p-id="1269"></path></svg>